<svg xmlns="http://www.w3.org/2000/svg" xmlns:xlink="http://www.w3.org/1999/xlink" viewBox="0 0 600 534.02"><defs><style>.a{fill:aqua;}.b,.c{font-size:370px;font-family:BrushScriptMT, Brush Script MT;}.c{letter-spacing:0.13em;}.d,.e,.f,.g,.h,.i,.j,.k,.l,.m,.n,.o,.p,.q,.r,.s,.t,.u,.v,.w,.x,.y{stroke:#000;stroke-miterlimit:10;stroke-width:2px;}.d{fill:url(#a);}.e{fill:url(#b);}.f{fill:url(#c);}.g{fill:url(#d);}.h{fill:url(#e);}.i{fill:url(#f);}.j{fill:url(#g);}.k{fill:url(#h);}.l{fill:url(#i);}.m{fill:url(#j);}.n{fill:url(#k);}.o{fill:url(#l);}.p{fill:url(#m);}.q{fill:url(#n);}.r{fill:url(#o);}.s{fill:url(#p);}.t{fill:url(#q);}.u{fill:url(#r);}.v{fill:url(#s);}.w{fill:url(#t);}.x{fill:url(#u);}</style><linearGradient id="a" x1="225" y1="136.95" x2="242" y2="136.95" gradientUnits="userSpaceOnUse"><stop offset="0" stop-color="#ff7bac"/><stop offset="0.22" stop-color="#ff7bac" stop-opacity="0.76"/><stop offset="0.6" stop-color="#ff7bac" stop-opacity="0.36"/><stop offset="0.87" stop-color="#ff7bac" stop-opacity="0.1"/><stop offset="1" stop-color="#ff7bac" stop-opacity="0"/></linearGradient><linearGradient id="b" x1="393.5" y1="482.2" x2="453.5" y2="482.2" xlink:href="#a"/><linearGradient id="c" x1="347" y1="456.2" x2="407" y2="456.2" xlink:href="#a"/><linearGradient id="d" x1="393" y1="430.2" x2="453" y2="430.2" xlink:href="#a"/><linearGradient id="e" x1="440" y1="404.2" x2="500" y2="404.2" xlink:href="#a"/><linearGradient id="f" x1="301" y1="482.2" x2="361" y2="482.2" xlink:href="#a"/><linearGradient id="g" x1="301" y1="430.2" x2="361" y2="430.2" xlink:href="#a"/><linearGradient id="h" x1="254" y1="455.2" x2="314" y2="455.2" xlink:href="#a"/><linearGradient id="i" x1="208" y1="482.2" x2="268" y2="482.2" xlink:href="#a"/><linearGradient id="j" x1="393.5" y1="378.2" x2="453.5" y2="378.2" xlink:href="#a"/><linearGradient id="k" x1="440" y1="352.2" x2="500" y2="352.2" xlink:href="#a"/><linearGradient id="l" x1="346.5" y1="352.2" x2="406.5" y2="352.2" xlink:href="#a"/><linearGradient id="m" x1="346.5" y1="404.2" x2="406.5" y2="404.2" xlink:href="#a"/><linearGradient id="n" x1="484.5" y1="326.2" x2="544.5" y2="326.2" xlink:href="#a"/><linearGradient id="o" x1="484" y1="274.2" x2="544" y2="274.2" xlink:href="#a"/><linearGradient id="p" x1="210" y1="430.2" x2="270" y2="430.2" xlink:href="#a"/><linearGradient id="q" x1="484" y1="222.2" x2="544" y2="222.2" xlink:href="#a"/><linearGradient id="r" x1="165" y1="455.2" x2="225" y2="455.2" xlink:href="#a"/><linearGradient id="s" x1="440" y1="196.2" x2="500" y2="196.2" xlink:href="#a"/><linearGradient id="t" x1="544" y1="274.21" x2="569.31" y2="274.21" xlink:href="#a"/><linearGradient id="u" x1="165" y1="494.71" x2="180" y2="494.71" xlink:href="#a"/></defs><polygon class="a" points="157.79 520.52 15.59 274.21 157.79 27.91 442.21 27.91 584.41 274.21 442.21 520.52 157.79 520.52"/><path d="M434.41,41.41l134.41,232.8L434.41,507H165.59L31.18,274.21,165.59,41.41H434.41m15.59-27H150L0,274.21,150,534H450L600,274.21,450,14.41Z"/><text class="b" transform="translate(85.57 368.92)">A</text><text class="c" transform="translate(230.74 317.17) rotate(-8)">K</text><path d="M260.06,167.18a1.5,1.5,0,0,0,0-3,1.5,1.5,0,0,0,0,3Z"/><path d="M262.57,172.2h5.85a1.5,1.5,0,0,0,0-3h-5.85a1.5,1.5,0,0,0,0,3Z"/><path d="M265.12,168.72v0l-.15.36a.41.41,0,0,1,.07-.11l-.24.3.07-.06-.31.23.14-.08-.36.15.18,0-.4.06a.67.67,0,0,1,.2,0l-.4-.05a.79.79,0,0,1,.22.06l-.36-.16a.67.67,0,0,1,.14.09l-.3-.24a1.14,1.14,0,0,1,.11.11l-.24-.3a.39.39,0,0,1,.06.11l-.15-.36,0,.09-.06-.4a.66.66,0,0,1,0,.14l.05-.4,0,.12.15-.35-.07.11.24-.31a.46.46,0,0,1-.12.12l.31-.23-.18.1.36-.15-.2.06.4-.06h-.2l.4.05-.16,0,.36.15-.11-.07.31.24-.07-.07.23.3c-.11-.14-.22-.29-.34-.43l.24.3a1.76,1.76,0,0,1-.24-.42l.15.36a2.42,2.42,0,0,1-.13-.46l.06.39a2.35,2.35,0,0,1,0-.53l-.06.4a2.42,2.42,0,0,1,.13-.46l-.15.35a1.77,1.77,0,0,1,.19-.33l-1.29.74h.13l-.4,0a.2.2,0,0,1,.11,0l-.35-.15.05,0-.3-.24.05.06-.23-.31.05.09-.15-.36,0,.13-.06-.4a.6.6,0,0,1,0,.19l.05-.4a.92.92,0,0,1-.08.27l.15-.35a1.35,1.35,0,0,1-.15.26l.24-.31a.85.85,0,0,1-.19.19l.3-.23a.54.54,0,0,1-.15.09l.36-.15a.32.32,0,0,1-.14,0l.4-.05h-.12l.4.05a.5.5,0,0,1-.13,0l.36.15-.16-.1.3.23-.16-.16.23.3a1.74,1.74,0,0,1-.11-.18l.15.35a1.29,1.29,0,0,1-.08-.28l.06.4a1.37,1.37,0,0,1,0-.35l-.06.4a2.42,2.42,0,0,1,.13-.46l-.15.35a2.3,2.3,0,0,1,.25-.43l-.23.3a1.62,1.62,0,0,1,.32-.32l-.3.23.17-.11-1.82-.24a2.61,2.61,0,0,1,.27.31l-.23-.31a3.85,3.85,0,0,1,.36.62l-.15-.36a3.69,3.69,0,0,1,.21.79l-.05-.39a3.22,3.22,0,0,1,0,.76l.05-.4c0,.12,0,.24-.07.36a1.54,1.54,0,0,0,.15,1.15,1.52,1.52,0,0,0,.9.69,1.49,1.49,0,0,0,1.15-.15,1.52,1.52,0,0,0,.69-.9,4.45,4.45,0,0,0-1.16-4.29,1.53,1.53,0,0,0-1.82-.23,3.35,3.35,0,0,0-1.62,2.83,2.57,2.57,0,0,0,.71,1.77,2.09,2.09,0,0,0,2,.59,2.45,2.45,0,0,0,1.74-1.9,2.06,2.06,0,0,0-.48-1.87,1.87,1.87,0,0,0-.84-.48,2.39,2.39,0,0,0-.53-.06,1.61,1.61,0,0,0-1.36.78,3.24,3.24,0,0,0-.51,1.91,3.18,3.18,0,0,0,.2,1,3.53,3.53,0,0,0,.68,1.15l-.23-.3a2.07,2.07,0,0,0,2.44.87,2.22,2.22,0,0,0,1.21-.92,1.94,1.94,0,0,0,.28-1.33,2.1,2.1,0,0,0-2-1.75,2.18,2.18,0,0,0-1.17.26,1.88,1.88,0,0,0-.45.35,2.19,2.19,0,0,0-.48.82,1.47,1.47,0,0,0,.15,1.16,1.53,1.53,0,0,0,.89.69,1.56,1.56,0,0,0,1.16-.15l.3-.24a1.49,1.49,0,0,0,.39-.66Z"/><path d="M265.07,167.18a1.5,1.5,0,0,0,0-3,1.5,1.5,0,0,0,0,3Z"/><path class="d" d="M242,136.21a5.76,5.76,0,0,1-5.5,6c-3,0-11.5,3.32-11.5,0s8.46-12,11.5-12A5.77,5.77,0,0,1,242,136.21Z"/><polygon class="e" points="438.5 456.21 408.5 456.21 393.5 482.2 408.5 508.18 438.5 508.18 453.5 482.2 438.5 456.21"/><polygon class="f" points="392 430.21 362 430.21 347 456.2 362 482.18 392 482.18 407 456.2 392 430.21"/><polygon class="g" points="438 404.21 408 404.21 393 430.2 408 456.18 438 456.18 453 430.2 438 404.21"/><polygon class="h" points="485 378.21 455 378.21 440 404.2 455 430.18 485 430.18 500 404.2 485 378.21"/><polygon class="i" points="346 456.21 316 456.21 301 482.2 316 508.18 346 508.18 361 482.2 346 456.21"/><polygon class="j" points="346 404.21 316 404.21 301 430.2 316 456.18 346 456.18 361 430.2 346 404.21"/><polygon class="k" points="299 429.21 269 429.21 254 455.2 269 481.18 299 481.18 314 455.2 299 429.21"/><polygon class="l" points="253 456.21 223 456.21 208 482.2 223 508.18 253 508.18 268 482.2 253 456.21"/><polygon class="m" points="438.5 352.21 408.5 352.21 393.5 378.2 408.5 404.18 438.5 404.18 453.5 378.2 438.5 352.21"/><polygon class="n" points="485 326.21 455 326.21 440 352.2 455 378.18 485 378.18 500 352.2 485 326.21"/><polygon class="o" points="391.5 326.21 361.5 326.21 346.5 352.2 361.5 378.18 391.5 378.18 406.5 352.2 391.5 326.21"/><polygon class="p" points="391.5 378.21 361.5 378.21 346.5 404.2 361.5 430.18 391.5 430.18 406.5 404.2 391.5 378.21"/><polygon class="q" points="529.5 300.21 499.5 300.21 484.5 326.2 499.5 352.18 529.5 352.18 544.5 326.2 529.5 300.21"/><polygon class="r" points="529 248.22 499 248.22 484 274.2 499 300.18 529 300.18 544 274.2 529 248.22"/><polygon class="s" points="255 404.21 225 404.21 210 430.2 225 456.18 255 456.18 270 430.2 255 404.21"/><polygon class="t" points="529 196.22 499 196.22 484 222.2 499 248.18 529 248.18 544 222.2 529 196.22"/><polygon class="u" points="210 429.21 180 429.21 165 455.2 180 481.18 210 481.18 225 455.2 210 429.21"/><polygon class="v" points="485 170.22 455 170.22 440 196.2 455 222.18 485 222.18 500 196.2 485 170.22"/><line class="w" x1="544" y1="274.2" x2="569.31" y2="274.21"/><line class="x" x1="180" y1="481.21" x2="165" y2="508.21"/><path class="y" d="M219,168.2q50.53,7,52.88,1.81,1.53-3.34-17.11-11.8"/></svg>